<?xml version="1.0" encoding="UTF-8" standalone="no"?>
<!-- Created with Inkscape (http://www.inkscape.org/) -->

<svg
   width="482mm"
   height="300mm"
   viewBox="0 0 482 300"
   version="1.1"
   id="svg1150"
   xml:space="preserve"
   inkscape:version="1.2.2 (b0a84865, 2022-12-01)"
   sodipodi:docname="Edited Counselling Graphics SN 2c - L2 Top Hero Banner.svg"
   xmlns:inkscape="http://www.inkscape.org/namespaces/inkscape"
   xmlns:sodipodi="http://sodipodi.sourceforge.net/DTD/sodipodi-0.dtd"
   xmlns="http://www.w3.org/2000/svg"
   xmlns:svg="http://www.w3.org/2000/svg"><sodipodi:namedview
     id="namedview1152"
     pagecolor="#ffffff"
     bordercolor="#000000"
     borderopacity="0.25"
     inkscape:showpageshadow="2"
     inkscape:pageopacity="0.0"
     inkscape:pagecheckerboard="0"
     inkscape:deskcolor="#d1d1d1"
     inkscape:document-units="mm"
     showgrid="false"
     inkscape:zoom="0.51329167"
     inkscape:cx="911.76232"
     inkscape:cy="566.92913"
     inkscape:window-width="1485"
     inkscape:window-height="802"
     inkscape:window-x="0"
     inkscape:window-y="38"
     inkscape:window-maximized="0"
     inkscape:current-layer="layer1" /><defs
     id="defs1147" /><g
     inkscape:label="Layer 1"
     inkscape:groupmode="layer"
     id="layer1"><g
       id="g6834"
       transform="matrix(2.0988296,0,0,2.0988296,-617.13367,-590.13249)">
	<g
   id="g6642">
		
		
		
	</g>
	<g
   id="g6832">
		<g
   id="g6652">
			<path
   class="st4"
   d="m 315.2,413.3 h 109.4 c 3.5,0 6.4,-10.5 6.4,-16.1 V 353 c 0,-9.2 -4.8,-16.6 -10.7,-16.6 H 319.5 c -5.9,0 -10.7,7.4 -10.7,16.6 v 44.2 c 0,5.6 2.9,16.1 6.4,16.1 z"
   id="path6644" />
			<rect
   x="313.5"
   y="375.79999"
   class="st4"
   width="111.7"
   height="12.8"
   id="rect6646" />
			<path
   class="st5"
   d="m 318.7,363.9 c 0,-6.4 -5.2,-11.6 -11.6,-11.6 -6.4,0 -11.6,5.2 -11.6,11.6 0,5 3.2,9.3 7.7,10.9 v 36.9 c 0,2.1 1.7,3.8 3.8,3.8 h 7.8 c 2.1,0 3.8,-1.7 3.8,-3.8 v -46.3 c 0.1,-0.4 0.1,-0.9 0.1,-1.5 z"
   id="path6648" />
			<path
   class="st5"
   d="m 418.4,363.9 c 0,-6.6 5.5,-11.9 12.2,-11.6 6.1,0.3 11,5.4 11.1,11.4 0.1,5.1 -3.1,9.4 -7.7,11.1 v 36.9 c 0,2.1 -1.7,3.8 -3.8,3.8 h -7.8 c -2.1,0 -3.8,-1.7 -3.8,-3.8 v -46.3 c -0.2,-0.4 -0.2,-0.9 -0.2,-1.5 z"
   id="path6650" />
		</g>
		<g
   id="g6704">
			<g
   id="g6660">
				<path
   class="st6"
   d="m 413.2,346.1 c 4.2,0 11.5,-1.9 11.5,-1.9 0,0 1.9,-3.2 2.8,-2.8 1.6,0.6 -0.6,3.4 -0.6,3.4 0,0 7.3,3.6 7.3,4.5 0,1.5 -1.9,0.5 -1.9,0.5 0,0 1.4,0.8 1.1,1.6 -0.4,1.1 -1.8,0 -1.8,0 0,0 1.4,1 1.2,1.5 -0.3,0.6 -1,0.9 -3.2,-0.2 -2.3,-1.1 -4.5,-3.3 -4.5,-3.3 0,0 -3.3,1.5 -11.2,2.7"
   id="path6654" />
				<line
   class="st7"
   x1="432.20001"
   y1="349.79999"
   x2="430"
   y2="348.29999"
   id="line6656" />
				<line
   class="st7"
   x1="428.5"
   y1="349.10001"
   x2="431"
   y2="350.89999"
   id="line6658" />
			</g>
			<path
   class="st8"
   d="m 392.9,324.8 c 0,0 3.2,0.2 5.3,6.8 1.5,4.6 0.5,11.1 7,13.9 4.7,2 14.1,-0.4 14.1,-0.4 l -0.1,6.6 c 0,0 -11.2,3 -15.3,1.8 -7.8,-2.2 -12,-8.2 -12,-8.2"
   id="path6662" />
			<ellipse
   class="st9"
   cx="394.20001"
   cy="417.10001"
   rx="50.900002"
   ry="3.5999999"
   id="ellipse6664" />
			<path
   class="st10"
   d="m 421.4,400.3 c 0,0 1.8,5.9 2.2,8.5 0.1,0.7 -1.7,5.3 -0.2,5.8 1.5,0.5 12.8,0.2 14.6,0.3 1.8,0.2 6.2,-0.1 7.1,-0.2 0.8,-0.2 1.6,-2.3 -0.7,-2.9 -2.6,-0.7 -5.9,-1.9 -7.4,-2.5 -1.5,-0.6 -3.9,-1.5 -4.3,-2.4 -0.4,-0.9 -3.4,-8.5 -3.4,-8.5"
   id="path6666" />
			<path
   class="st6"
   d="m 395,402.7 c 0,0 -0.7,8.1 -1.1,8.8 -0.4,0.7 -2,5.2 -0.5,5.7 1.5,0.5 13.8,-0.2 15.7,0 1.9,0.2 5.7,0.3 6.5,0.1 0.8,-0.2 1.7,-3.1 -0.7,-3 -2.4,0.1 -7.1,-1.4 -8.6,-2.1 -1.5,-0.7 -3,-2.1 -3.4,-3 -0.4,-0.9 0.7,-6.7 0.7,-6.7"
   id="path6668" />
			<g
   id="g6674">
				<path
   class="st11"
   d="m 374.2,358.1 c 0,0 -6.3,15 8.1,15.9 14.2,0.9 25.6,-2.7 25.6,-2.7 0,0 1.6,8.7 3.6,12.1 4.4,7.3 8.5,20.4 8.5,20.4 l 10.8,-4.5 c 0,0 -9.3,-24.5 -11.6,-30.3 -1.4,-3.6 -4,-7.4 -8.5,-8.4 -4,-0.9 -17.5,-1.8 -17.5,-1.8 z"
   id="path6670" />
				<path
   class="st12"
   d="m 370.7,357.8 c 0,0 -7.6,17.2 7.6,18.5 14.9,1.3 21.7,0.7 21.7,0.7 0,0 -1.9,8.7 -2.9,12.5 -1.1,4 -3.4,17.4 -3.4,17.4 l 10.3,0.4 c 0,0 13.7,-31 13.8,-36.8 0,-4.1 -4,-7.8 -8.7,-9.1 -4.2,-1.1 -15.6,-1.4 -15.6,-1.4 z"
   id="path6672" />
			</g>
			<g
   id="g6682">
				<path
   id="XMLID_00000111892292235355384840000006245935765586851211_"
   class="st3"
   d="m 380.7,306 c 0,0 -1.1,-6.6 -0.5,-9.3 0.7,-2.7 4.2,-6.2 7.4,-7.6 0,0 6.9,-2.4 8.9,0.3 2.7,3.8 -1.3,7.3 -1.3,7.3" />
				<path
   id="XMLID_00000123423500312125607350000008915003869010799493_"
   class="st6"
   d="m 381.5,302.9 c 0,0 -2.8,-1 -3.3,1.2 -0.8,3.4 2.8,4.1 2.8,4.1 l 1.5,14.5 10,3.4 -0.2,-8.3 c 0,0 3.3,-0.2 5.1,-2.2 1.9,-1.9 1,-7.5 1.7,-7.5 0.7,0 2.6,-1.7 1.6,-3.1 -0.3,-0.5 -1.6,-0.6 -3.4,-2.4 -2,-2 -2.4,-5.8 -2.4,-5.8 -1.9,1.6 -3.5,1.6 -5.8,1 -6.9,-1.8 -7.7,5.2 -7.7,5.2" />
				<path
   class="st13"
   d="m 395.8,312.9 c 0,0 -1.6,1.6 -4.1,0.6 -2.5,-1 -4.3,-3.2 -4.3,-3.2"
   id="path6678" />
				<ellipse
   transform="matrix(0.1783,-0.984,0.984,0.1783,22.7563,632.3899)"
   class="st3"
   cx="390"
   cy="302.60001"
   rx="1"
   ry="0.89999998"
   id="ellipse6680" />
			</g>
			<g
   id="g6690">
				<polyline
   class="st8"
   points="378.9,320.8 390,324.6 393.8,325.4 393.9,325.9 394,359.9 372.7,358.2 374.2,336     "
   id="polyline6684" />
				<line
   class="st7"
   x1="389.79999"
   y1="325.10001"
   x2="388.70001"
   y2="346.79999"
   id="line6686" />
				<polygon
   class="st8"
   points="390,324.5 392.2,327.8 394.7,326 393.4,323.4 "
   id="polygon6688" />
			</g>
			<polygon
   class="st8"
   points="381.5,319 378,321.2 387.2,327.6 390,324.6 "
   id="polygon6692" />
			<path
   class="st6"
   d="m 392.9,312.7 c 0,0 1.5,1.5 3.1,1.3"
   id="path6694" />
			<path
   class="st6"
   d="m 387.2,360.8 c 5,-0.4 9.3,-1.2 10.4,-1.3 3.2,-0.5 3.8,-0.9 3.7,-1.7 -0.1,-0.9 -4.1,-0.4 -4.1,-0.4 0,0 5.3,-0.5 5.1,-2.1 -0.2,-1.1 -5.6,-0.1 -5.6,-0.1 0,0 5.7,-0.8 5.5,-2.1 -0.3,-1.4 -8.4,0.2 -8.4,0.2 0,0 2.8,-2.9 1,-3.6 -1,-0.4 -4,3.7 -4,3.7 0,0 -1.5,0.4 -3.8,0.7"
   id="path6696" />
			<path
   class="st8"
   d="m 376.7,336.9 c 0,0 -3.5,11 -1.2,13.3 2.3,2.4 14,2.5 14,2.5 l -0.2,9.4 c 0,0 -12.5,0.3 -19.4,-2.8 -4.2,-1.9 -5.7,-4.4 -5,-16.3 0.8,-13 6.9,-18.7 13.7,-21.2"
   id="path6698" />
			<line
   class="st7"
   x1="384.89999"
   y1="358.10001"
   x2="385.20001"
   y2="352.70001"
   id="line6700" />
			<line
   class="st7"
   x1="416.79999"
   y1="345.60001"
   x2="416.20001"
   y2="349.79999"
   id="line6702" />
		</g>
		<g
   id="g6714">
			<path
   class="st14"
   d="m 492.7,382.1 c 0,0 0.7,28.5 0.9,36.5 0,0.6 -1.9,1.8 -2.4,-0.2 -0.7,-3 -4.1,-36.1 -4.1,-36.1 z"
   id="path6706" />
			<path
   class="st14"
   d="m 479.7,382.4 c 0,0 -10.6,26.4 -13.7,33.8 -0.2,0.6 -2.4,0.9 -2.1,-1.1 0.5,-3 10.6,-34.8 10.6,-34.8 z"
   id="path6708" />
			<path
   class="st14"
   d="m 499.7,382.7 c 0,0 10,26.7 12.9,34.1 0.2,0.6 2.4,1 2.1,-1 -0.4,-3 -9.8,-35 -9.8,-35 z"
   id="path6710" />
			<path
   class="st15"
   d="m 514.5,338.6 c -1.9,0 -7.5,0.2 -14.3,3.7 -6.9,3.5 -8.1,5.1 -11.3,8.8 -3.1,3.7 -4.7,8.5 -11.6,10.7 -7,2.2 -11.8,2.2 -14.5,6.3 -2.7,4.1 -2,0.8 -2,3.9 0,3.1 0.8,9 0.8,9 0,0 0.6,2.7 3.2,3.5 2.6,0.9 24.2,3.1 31.5,1.4 7.3,-1.7 15.2,-2.2 18.5,-12.8 3.4,-10.6 2,-13.9 3.6,-19.6 1.6,-5.7 3.6,-11 3.5,-12.2 -0.1,-1.2 -0.8,-3 -2.6,-2.8 -1.9,0.3 -3.6,0.1 -4.8,0.1 z"
   id="path6712" />
		</g>
		<g
   id="g6787">
			<ellipse
   class="st9"
   cx="464.5"
   cy="416.39999"
   rx="23.5"
   ry="2.5999999"
   id="ellipse6716" />
			<path
   class="st3"
   d="m 484.2,312.7 c 0,0 -0.2,1.3 -1.2,3.6 -1,2.3 -2,3.1 -2,3.1 0,0 1.7,1.6 4.4,2.5 2.7,0.9 3.1,-0.8 3.1,-0.8 l 1.7,-8 z"
   id="path6718" />
			<path
   class="st16"
   d="m 457.5,342.2 c 0,0 -3.1,-3.6 -4.1,-3 -1,0.6 0,1.8 0.7,2.4 0.3,0.2 0.3,0.5 0.5,0.9 0.1,0.1 0.2,0.2 0.3,0.3 l 0.6,0.4"
   id="path6720" />
			<g
   id="right_arm_00000182499990175923653140000004916834066152097205_">
				<path
   class="st17"
   d="m 469.8,366.9 c 0,0 2.5,-1.6 3.4,-2.3"
   id="path6722" />
				<path
   class="st17"
   d="m 470.9,368.3 c 0,0 2.8,-1.8 3.5,-2.5"
   id="path6724" />
				<path
   class="st17"
   d="m 472.2,369.6 c 0,0 2.3,-1.5 3.1,-2.2"
   id="path6726" />
			</g>
			<g
   id="g6733">
				<path
   class="st16"
   d="m 464.4,398.8 c 0,0 0.9,5.7 0.4,6.9 -0.6,1.2 -5.5,3 -7.2,4.8 -0.6,0.7 -2.2,3.6 0.8,3.4 2.4,-0.2 7.7,-2.8 9.3,-3.6 1.5,-0.7 4.6,-1.7 4,-2.9 -1.6,-2.7 -0.8,-8.1 -0.8,-8.1"
   id="path6729" />
				<path
   class="st16"
   d="m 467.5,400.6 c 0,0 3.5,7.4 2.7,8.6 -0.8,1.1 -7.7,5.1 -8.9,6.7 -0.5,0.7 -1.1,3.4 1.3,2.8 4.4,-1 7.9,-2.5 9.6,-3.2 2.3,-1 6.2,-2.3 5.7,-3.5 -1.1,-2.8 -4.1,-12.2 -4.1,-12.2"
   id="path6731" />
			</g>
			<g
   id="lady_head_00000090262831168627306100000006613906349753365378_">
				<path
   class="st16"
   d="m 485.7,326.9 1.5,-11.2 c 0,0 -3.1,-0.1 -4.9,-0.8 -2.4,-1 -2.7,-4 -2.9,-5.2 -0.1,-1.1 -0.4,-5.5 -0.4,-5.5 0,0 -2.1,-1.2 -1.9,-2.2 0.8,-4.4 6.2,-9.1 7.9,-11 1.8,-2 7.3,-0.5 9.6,3.2 2.3,3.7 -1.1,12.9 -1.1,12.9 0,0 -0.3,6.3 -0.3,9.2 0,3.5 2.9,8.7 2.9,8.7"
   id="path6735" />
				<circle
   class="st18"
   cx="486.79999"
   cy="301.29999"
   r="0.80000001"
   id="circle6737" />
			</g>
			<g
   id="g6744">
				<path
   class="st19"
   d="m 497.8,358.5 c 0,0 8.1,16.2 -7,17.8 -14.9,1.5 -27.1,-1.8 -27.1,-1.8 l 8.2,25.7 -6.8,2.5 c 0,0 -12.5,-24.4 -13.4,-30.1 -0.8,-5.1 3.9,-7.9 8.6,-9.2 4.2,-1.1 24.5,-4.3 24.5,-4.3 z"
   id="path6740" />
				<path
   class="st19"
   d="m 501.9,357.6 c 0,0 9.3,18.7 -7.8,18.8 -27,0.2 -27,0.2 -27,0.2 0,0 3.9,11.4 5,15.4 1,3.7 3.1,10 3.1,10 l -7,3.2 c 0,0 -11.4,-24.3 -11.5,-30.2 0,-4.2 1.4,-7.5 6.2,-8.7 4.3,-1.1 24.8,-7.6 24.8,-7.6 z"
   id="path6742" />
			</g>
			<path
   class="st16"
   d="m 481.5,312.1 c 0,0 1.9,-0.6 2.5,-2.1"
   id="path6746" />
			<path
   class="st20"
   d="m 463,393.4 c 0,0 -6.2,-12.4 -6.2,-18.4 0,-4.2 1.4,-7.5 6.2,-8.7 4.3,-1.1 15.1,-4.4 15.1,-4.4"
   id="path6748" />
			<path
   class="st21"
   d="m 494.2,319.8 c -1.2,-0.2 -2.7,1.9 -3.1,3.1 -0.7,2.8 -1.5,6.8 -1.4,13.9 0.2,10.4 2.3,24.8 2.3,24.8 l 11.6,-1.4 c 0,0 -1.1,-27.9 -2,-32.7 -1,-4.8 -1.7,-6.1 -3,-6.9 -0.6,-0.3 -3.6,-0.6 -4.4,-0.8 z"
   id="path6750" />
			<g
   id="g6779">
				<g
   id="g6761">
					<path
   class="st16"
   d="m 481.8,330.1 c -4.9,5.4 -2.1,7 -7.1,10 -9.1,5.4 -23.3,0.3 -24.8,0.1 -0.8,-0.1 -1.6,0.6 -0.7,1.3 0.4,0.4 0.8,0.5 1,0.5 -0.5,-0.1 -2.2,-0.2 -2.4,0.7 -0.2,0.7 2.5,1.1 2.5,1.1 0,0 -2.2,-0.1 -2.3,0.8 0,0.7 2.7,1.1 2.7,1.1 0,0 -1.5,-0.2 -1.5,0.8 0,0.9 4.1,0.9 4.1,0.9 l 6,0.2 c 3.1,0.4 6.4,0.4 9.5,0.1 12.6,-1.2 17.6,-8.6 18.8,-13.8 0.6,-2.9 -2.1,-7.9 -5.8,-3.8 z"
   id="path6752" />
					<g
   id="right_arm_00000021831768984013576090000017379756678941998267_">
						<path
   class="st17"
   d="m 449.8,341.8 c 0,0 1.9,0.5 3.1,0.7"
   id="path6754" />
						<path
   class="st17"
   d="m 449,343.8 c 0,0 3.5,0.5 4.6,0.6"
   id="path6756" />
						<path
   class="st17"
   d="m 449.2,345.6 c 0,0 3,0.5 4.1,0.5"
   id="path6758" />
					</g>
				</g>
				<path
   class="st22"
   d="m 488.7,329.6 c 0.2,-3.3 -4.5,-9.9 -7.7,-5.4 -4.4,6.1 -0.9,9.6 -5.4,13.6 -3.6,3.2 -8.5,4 -13,4.3 l 0.9,7.1 c 3.3,-0.2 5.1,-0.1 8,-0.9 12,-3.2 16.7,-13.1 17.2,-18.7 z"
   id="path6763" />
				<path
   class="st22"
   d="m 499.8,321.7 c 0,0 0.1,1.1 0.1,4.5 0,3 -1.5,4.3 -1.5,4.3 l 3.5,27.1 -17.8,1.2 c 0,0 0.5,-14.1 0,-15.7 -0.5,-1.6 -3.8,-5.2 -3.5,-8.2 0.3,-4.1 2.7,-12.4 2.7,-12.4 l 2.9,-1.2 1.9,4.4 6.1,-5.5 z"
   id="path6765" />
				<circle
   class="st23"
   cx="487.89999"
   cy="328.29999"
   r="0.80000001"
   id="circle6767" />
				<circle
   class="st23"
   cx="487.5"
   cy="332.70001"
   r="0.80000001"
   id="circle6769" />
				<circle
   class="st23"
   cx="487.5"
   cy="336.89999"
   r="0.80000001"
   id="circle6771" />
				<g
   id="g6775">
					<path
   class="st16"
   d="m 478.5,339 c 20.3,3.1 17.7,-4.7 16.4,-13 -0.7,-4.4 5.3,-6.3 6.6,-1.5 0.9,3.4 1.6,8.4 0.8,12.6 -1,5 -4.1,8.3 -10.2,8.8 -3,0.3 -7.8,0.6 -13.8,0.3 -5.3,-0.3 -9.9,-1 -11.1,-1.2 -3.4,-0.5 -4.1,-0.9 -4,-1.8 0.1,-1 4.4,-0.5 4.4,-0.5 0,0 -5.7,-0.4 -5.5,-2.1 0.2,-1.1 6,-0.2 6,-0.2 0,0 -6.1,-0.7 -5.9,-2.1 0.3,-1.5 8.9,0.1 8.9,0.1 0,0 -3.1,-3 -1.1,-3.8 1.1,-0.5 4.4,3.9 4.4,3.9 0,0 1.8,0.1 4.1,0.5"
   id="path6773" />
				</g>
				<path
   class="st22"
   d="m 495.2,332.8 c -0.4,2.9 -1.1,5.4 -5.5,6.2 -3.9,0.7 -7.5,-0.2 -7.5,-0.2 l 0.2,8.5 c 0,0 13.4,2.6 18.4,-3.7 5,-6.3 2.9,-14.1 2.5,-16.4 -0.4,-2.3 -2.2,-6.6 -5.3,-6 0,0 -2.4,0.6 -3.1,2.4 -0.7,2.3 0.3,9.2 0.3,9.2 z"
   id="path6777" />
			</g>
			<path
   class="st3"
   d="m 488.5,321.8 c 0,0 8.5,0.4 12.8,-2.8 0.1,-0.1 6.3,-18.7 0,-26.3 -3.8,-4.7 -9.9,-5.6 -14.9,-3.4 -5,2.2 -5.3,5.7 -5.3,5.7 -0.1,-0.4 1.1,1.5 6.3,3.2 3.6,1.2 6.3,-0.5 6.3,-0.5 0,0 0.8,5.9 -0.9,13.1 -1,4.7 -4.3,11 -4.3,11 z"
   id="path6781" />
			<path
   class="st16"
   d="m 492.8,303.3 c 0,0 2.7,-1.6 3.5,0.8 0.8,2.4 -1,3.2 -2,3.3 -1,0.1 -1.8,-0.5 -1.8,-0.5"
   id="path6783" />
			<ellipse
   transform="matrix(0.984,-0.1783,0.1783,0.984,-45.8396,91.3393)"
   class="st3"
   cx="485.29999"
   cy="300.70001"
   rx="0.89999998"
   ry="1"
   id="ellipse6785" />
		</g>
		<g
   id="g6830">
			<g
   id="g6797">
				<path
   class="st16"
   d="m 366.2,366.6 c 0,0 -16.5,-10.6 -21,-16.8 -4.5,-6.2 -8.2,-21.7 -7.3,-24.8 0.7,-2.4 3.8,-3.2 6.2,0.3 2.4,3.5 2.8,16.4 7.4,22.2 4.5,5.7 18.2,14.4 19.6,15.2 0.5,0.3 0.6,1.2 -0.2,1.2 -0.6,0 -0.9,-0.2 -0.9,-0.2 0,0 1.6,0.9 1,1.7 -0.3,0.4 -1.9,-0.5 -1.9,-0.5 0,0 0.9,0.7 0.4,1.3 -0.3,0.5 -1.7,-0.3 -1.7,-0.3 0,0 1.2,0.7 0.7,1.4 -0.3,0.6 -2.3,-0.7 -2.3,-0.7 z"
   id="path6789" />
				<path
   class="st16"
   d="m 370,363.7 c 0,0 -2.1,-1.3 -2.8,-1.8"
   id="path6791" />
				<path
   class="st16"
   d="m 369,364.9 c 0,0 -2.3,-1.4 -3,-2"
   id="path6793" />
				<path
   class="st16"
   d="m 368,366 c 0,0 -1.9,-1.2 -2.6,-1.8"
   id="path6795" />
			</g>
			<path
   class="st24"
   d="m 341.9,322.7 c 0,0 2.5,0.8 3.7,3.9 1.2,3.1 3.1,16 5.5,19.2 2.4,3.2 11.4,10.6 11.4,10.6 l -4,5 c 0,0 -9.2,-6.6 -13.8,-11.5 -4.3,-4.5 -5.9,-12.5 -5.9,-12.5 z"
   id="path6799" />
			<g
   id="lady_head_3_">
				<path
   class="st16"
   d="m 340,326.4 -1.3,-12.9 c 0,0 2.9,-0.1 4.6,-0.8 2.2,-0.9 2.6,-3.7 2.7,-4.8 0.1,-1.1 0.4,-8.1 0.4,-8.1 0,0 2.2,-1.9 1.4,-2.2 -2.5,-1.2 -5.4,-5.3 -7,-7 -1.7,-1.9 -6.8,-0.5 -8.9,3 -2.1,3.5 1,12 1,12 0,0 0.3,5.8 0.3,8.6 0,3.3 -2.2,10.9 -2.2,10.9"
   id="path6801" />
				<path
   class="st3"
   d="m 332.4,318.8 c 0,0 -3,0.6 -4.5,-2 -1.5,-2.6 0.4,-8.5 0.1,-11.1 -0.3,-2.6 -3.2,-8.8 0.1,-13.1 3.5,-4.5 7.9,-6.3 12.6,-4.3 4.6,2.1 5.1,7.7 5.1,7.7 0,0 -3.6,-1.3 -4,-1.6 -0.5,-0.2 -1.8,-0.9 -1.8,-0.9 0,0 -0.8,3.2 -3,3.8 -2.2,0.7 -4.8,1 -4.8,1 0,0 0.6,9.1 0.9,11 0.8,4.7 -0.7,9.5 -0.7,9.5 z"
   id="path6803" />
				<path
   class="st17"
   d="m 339,308.1 c 0.1,1.3 2,2 3.6,1.4"
   id="path6805" />
				<circle
   class="st3"
   cx="339"
   cy="300.10001"
   r="0.80000001"
   id="circle6807" />
				<path
   class="st16"
   d="m 333.5,302 c 0,0 -2.5,-1.4 -3.3,0.7 -0.7,2.2 0.9,3 1.9,3.1 1,0.1 1.6,-0.5 1.6,-0.5"
   id="path6809" />
			</g>
			<path
   class="st16"
   d="m 362.5,402.1 c 0,0 -1.2,4.9 -0.8,6.1 0.4,1.1 6.3,7.6 6.1,8.7 -0.2,0.8 -1.3,1.5 -2.8,0 -1.5,-1.5 -4.9,-4.6 -6.3,-5.1 -1.4,-0.4 -3.6,-1.6 -2.9,-2.6 1.5,-2.3 1.3,-7 1.3,-7"
   id="path6812" />
			<path
   class="st16"
   d="m 358.5,402.6 c 0,0 -1.1,4.6 -0.9,5.9 0.2,1.2 3.9,8.9 3.4,10 -0.3,0.8 -1.6,1.3 -2.8,-0.7 -1.1,-2 -3.9,-6.1 -5.2,-6.9 -1.3,-0.8 -3.2,-2.6 -2.4,-3.4 2,-2.1 2.8,-7.2 2.8,-7.2"
   id="path6814" />
			<path
   class="st16"
   d="m 331.5,321.1 c 0,0 4,6.1 6.2,6 2.2,-0.1 2.3,-4.4 2.3,-4.4"
   id="path6816" />
			<path
   class="st24"
   d="m 328.2,321.7 c 0,0 2.1,5.3 2.1,8.6 0,3 -2.6,7.4 -2.6,7.4 l -1.5,20.6 16.4,0.9 c 0,0 -1.4,-8.6 -1,-12.4 0.3,-2.4 3.3,-6.9 3.3,-13.1 0,-5.4 -2.9,-10.9 -2.9,-10.9 l -2.4,-0.9 c 0,0 0.4,3.3 -2.6,3.6 -2.5,0.2 -4.9,-5 -4.9,-5 z"
   id="path6818" />
			<g
   id="g6824">
				<path
   class="st19"
   d="m 329,359.6 c 0,0 -7.2,15.4 7.8,16.9 14.8,1.5 26.8,-1.8 26.8,-1.8 0,0 -4.7,11.5 -5.8,15.3 -1.2,4 -3.2,10 -3.2,10 l 7.6,2.6 c 0,0 13.1,-24 13.3,-29.8 0.1,-4 -3.9,-7.9 -8.5,-9.1 -4.1,-1.1 -18.4,-1.6 -18.4,-1.6 z"
   id="path6820" />
				<path
   class="st19"
   d="m 326.2,357.7 c 0,0 -7.7,17.5 7.7,18.8 15.1,1.3 24.8,0.7 24.8,0.7 0,0 -2.7,6.9 -3.7,10.8 -1,3.7 -2,13.4 -2,13.4 l 6.5,1.9 c 0,0 10.2,-20.6 10.3,-26.4 0,-4.1 -1.8,-10.3 -6.5,-11.5 -4.2,-1.1 -22.3,-6.3 -22.3,-6.3 z"
   id="path6822" />
			</g>
			<path
   class="st25"
   d="m 335.8,360 c 3.9,1.4 7.5,2.2 8.4,2.4 2.6,0.6 3.2,0.6 3.4,0 0.2,-0.7 -3.1,-1.7 -3.1,-1.7 0,0 4.3,1.4 4.6,0.1 0.2,-0.8 -4.3,-1.9 -4.3,-1.9 0,0 4.6,1.3 4.9,0.3 0.2,-1.1 -6.5,-2.6 -6.5,-2.6 0,0 3.1,-1.2 1.9,-2.3 -0.6,-0.6 -4.3,1.4 -4.3,1.4 0,0 -1.3,-0.2 -3.2,-0.7"
   id="path6826" />
			<path
   class="st24"
   d="m 330.4,321 c 0,0 -5,-1.3 -7.5,4.8 -2.5,6.1 -3.7,14.7 -3.7,20.2 0,4.8 -0.2,9.6 2.9,11.7 3.1,2.1 15.1,2.8 15.1,2.8 l 1.2,-5.2 c 0,0 -10.8,-4.2 -10.6,-4.8 0.2,-0.5 5.5,-20 4.8,-22.6"
   id="path6828" />
		</g>
	</g>
</g></g><style
     type="text/css"
     id="style6556">
	.st0{fill:#E6C0B7;stroke:#29245C;stroke-linecap:round;stroke-linejoin:round;stroke-miterlimit:10;}
	.st1{fill:#F5DEC3;}
	.st2{fill:none;stroke:#29245C;stroke-width:0.8504;stroke-miterlimit:10;}
	.st3{fill:#29245C;}
	.st4{fill:#E2ECC5;stroke:#29245C;stroke-width:0.9273;stroke-miterlimit:10;}
	.st5{fill:#E2ECC5;stroke:#29245C;stroke-width:0.8504;stroke-miterlimit:10;}
	.st6{fill:#FFFFFF;stroke:#29245C;stroke-width:0.823;stroke-linecap:round;stroke-linejoin:round;stroke-miterlimit:10;}
	.st7{fill:none;stroke:#29245C;stroke-width:0.823;stroke-linecap:round;stroke-linejoin:round;stroke-miterlimit:10;}
	.st8{fill:#E6C0B7;stroke:#29245C;stroke-width:0.823;stroke-linecap:round;stroke-linejoin:round;stroke-miterlimit:10;}
	.st9{opacity:0.25;fill:#858485;enable-background:new    ;}
	.st10{fill:#FFFFFF;stroke:#29245C;stroke-width:0.8016;stroke-linecap:round;stroke-linejoin:round;stroke-miterlimit:10;}
	.st11{fill:#8CA5B4;stroke:#29245C;stroke-width:0.8016;stroke-miterlimit:10;}
	.st12{fill:#8CA5B4;stroke:#29245C;stroke-width:0.823;stroke-miterlimit:10;}
	
		.st13{display:none;fill:none;stroke:#29245C;stroke-width:0.823;stroke-linecap:round;stroke-linejoin:round;stroke-miterlimit:10;}
	.st14{fill:#FFFFFF;stroke:#28255C;stroke-width:0.85;stroke-linecap:round;stroke-linejoin:round;stroke-miterlimit:10;}
	.st15{fill:#FCC994;stroke:#28255C;stroke-width:0.85;stroke-linecap:round;stroke-linejoin:round;stroke-miterlimit:10;}
	.st16{fill:#FFFFFF;stroke:#29245C;stroke-width:0.8504;stroke-linecap:round;stroke-linejoin:round;stroke-miterlimit:10;}
	.st17{fill:none;stroke:#29245C;stroke-width:0.8504;stroke-linecap:round;stroke-linejoin:round;stroke-miterlimit:10;}
	.st18{display:none;fill:#29245C;}
	.st19{fill:#29245C;stroke:#29245C;stroke-width:0.8504;stroke-linecap:round;stroke-linejoin:round;stroke-miterlimit:10;}
	.st20{fill:none;stroke:#FFFFFF;stroke-width:0.8504;stroke-linecap:round;stroke-linejoin:round;stroke-miterlimit:10;}
	
		.st21{display:none;fill:#FFFFFF;stroke:#29245C;stroke-width:0.8504;stroke-linecap:round;stroke-linejoin:round;stroke-miterlimit:10;}
	.st22{fill:#8CA5B4;stroke:#29245C;stroke-width:0.75;stroke-miterlimit:10;}
	.st23{fill:#FFFFFF;}
	.st24{fill:#90C4BB;stroke:#29245C;stroke-width:0.8504;stroke-linecap:round;stroke-linejoin:round;stroke-miterlimit:10;}
	.st25{fill:#FFFFFF;stroke:#29245C;stroke-width:0.8268;stroke-linecap:round;stroke-linejoin:round;stroke-miterlimit:10;}
</style></svg>
